<svg xmlns="http://www.w3.org/2000/svg" xmlns:xlink="http://www.w3.org/1999/xlink" width="500" zoomAndPan="magnify" viewBox="0 0 375 374.999991" height="500" preserveAspectRatio="xMidYMid meet" version="1.2"><defs><clipPath id="bd36fdc20a"><path d="M 18.75 15.625 L 356.25 15.625 L 356.25 359.714844 L 18.75 359.714844 Z M 18.75 15.625 "/></clipPath><clipPath id="6f2369c9b2"><path d="M 65.25 15.625 L 309.75 15.625 C 322.082031 15.625 333.910156 20.523438 342.628906 29.246094 C 351.351562 37.964844 356.25 49.792969 356.25 62.125 L 356.25 312.875 C 356.25 325.207031 351.351562 337.035156 342.628906 345.753906 C 333.910156 354.476562 322.082031 359.375 309.75 359.375 L 65.25 359.375 C 52.917969 359.375 41.089844 354.476562 32.371094 345.753906 C 23.648438 337.035156 18.75 325.207031 18.75 312.875 L 18.75 62.125 C 18.75 49.792969 23.648438 37.964844 32.371094 29.246094 C 41.089844 20.523438 52.917969 15.625 65.25 15.625 Z M 65.25 15.625 "/></clipPath></defs><g id="79f631e005"><g clip-rule="nonzero" clip-path="url(#bd36fdc20a)"><g clip-rule="nonzero" clip-path="url(#6f2369c9b2)"><path style=" stroke:none;fill-rule:nonzero;fill:#000000;fill-opacity:1;" d="M 18.75 15.625 L 356.25 15.625 L 356.25 359.714844 L 18.75 359.714844 Z M 18.75 15.625 "/></g></g><g style="fill:#ffffff;fill-opacity:1;"><g transform="translate(64.698113, 286.803129)"><path style="stroke:none" d="M 34.625 2 C 18.894531 2 7.4375 -2.929688 0.25 -12.796875 C -6.9375 -22.660156 -8.523438 -36.207031 -4.515625 -53.4375 L 18.3125 -152.78125 C 23.332031 -174.1875 31.359375 -190.328125 42.390625 -201.203125 C 53.429688 -212.078125 68.066406 -217.515625 86.296875 -217.515625 C 102.191406 -217.515625 113.984375 -213.164062 121.671875 -204.46875 C 129.367188 -195.769531 131.289062 -183.222656 127.4375 -166.828125 L 118.90625 -129.703125 L 76.015625 -129.703125 L 83.546875 -161.5625 C 84.878906 -167.75 85.082031 -172.015625 84.15625 -174.359375 C 83.238281 -176.703125 80.941406 -177.875 77.265625 -177.875 C 73.421875 -177.875 70.453125 -176.535156 68.359375 -173.859375 C 66.273438 -171.179688 64.644531 -167.25 63.46875 -162.0625 L 38.390625 -53.9375 C 37.210938 -48.25 37.125 -44.109375 38.125 -41.515625 C 39.132812 -38.921875 41.3125 -37.625 44.65625 -37.625 C 51.34375 -37.625 55.941406 -43.0625 58.453125 -53.9375 L 67.484375 -92.828125 L 110.890625 -92.828125 L 101.609375 -52.1875 C 93.242188 -16.0625 70.914062 2 34.625 2 Z M 34.625 2 "/></g></g><g style="fill:#ffffff;fill-opacity:1;"><g transform="translate(183.610956, 286.803129)"><path style="stroke:none" d="M 34.125 -216.75 L 79.28125 -216.75 L 67.484375 -165.578125 C 75.179688 -178.953125 85.632812 -185.640625 98.84375 -185.640625 C 111.21875 -185.640625 119.660156 -181.707031 124.171875 -173.84375 C 128.691406 -165.988281 129.363281 -155.207031 126.1875 -141.5 L 93.578125 0 L 49.671875 0 L 81.78125 -138.734375 C 82.613281 -142.742188 82.40625 -146.003906 81.15625 -148.515625 C 79.90625 -151.023438 77.519531 -152.28125 74 -152.28125 C 70.988281 -152.28125 68.3125 -150.984375 65.96875 -148.390625 C 63.632812 -145.796875 62.050781 -142.660156 61.21875 -138.984375 L 29.09375 0 L -16.0625 0 Z M 34.125 -216.75 "/></g></g></g></svg>